<svg width="18" height="18" viewBox="0 0 18 18" fill="none" xmlns="http://www.w3.org/2000/svg">
<path d="M1.66602 6.25033V3.50033C1.66602 3.0141 1.85917 2.54778 2.20299 2.20396C2.5468 1.86015 3.01312 1.66699 3.49935 1.66699H6.24935M16.3327 11.7503V14.5003C16.3327 14.9866 16.1395 15.4529 15.7957 15.7967C15.4519 16.1405 14.9856 16.3337 14.4993 16.3337H11.7493M11.7493 1.66699H14.4993C14.9856 1.66699 15.4519 1.86015 15.7957 2.20396C16.1395 2.54778 16.3327 3.0141 16.3327 3.50033V6.25033M6.24935 16.3337H3.49935C3.01312 16.3337 2.5468 16.1405 2.20299 15.7967C1.85917 15.4529 1.66602 14.9866 1.66602 14.5003V11.7503" stroke="#666666" stroke-width="1.5" stroke-linecap="round" stroke-linejoin="round"/>
</svg>
