<svg width="30" height="30" viewBox="0 0 30 30" fill="none" xmlns="http://www.w3.org/2000/svg">
<path d="M15 0C12.0333 0 9.13319 0.879735 6.66645 2.52796C4.19971 4.17618 2.27713 6.51886 1.14181 9.25975C0.00649925 12.0006 -0.290551 15.0166 0.288227 17.9263C0.867006 20.8361 2.29562 23.5088 4.3934 25.6066C6.49119 27.7044 9.16394 29.133 12.0736 29.7118C14.9834 30.2905 17.9994 29.9935 20.7403 28.8582C23.4811 27.7229 25.8238 25.8003 27.472 23.3335C29.1203 20.8668 30 17.9667 30 15C30 11.0217 28.4196 7.20644 25.6066 4.3934C22.7936 1.58035 18.9783 0 15 0ZM15 27.8571C12.4571 27.8571 9.9713 27.1031 7.85696 25.6903C5.74261 24.2776 4.09468 22.2695 3.12155 19.9202C2.14843 17.5709 1.89381 14.9857 2.38991 12.4917C2.88601 9.99765 4.11053 7.70673 5.90863 5.90863C7.70674 4.11052 9.99766 2.886 12.4917 2.3899C14.9857 1.89381 17.5709 2.14842 19.9202 3.12155C22.2696 4.09467 24.2776 5.74261 25.6903 7.85695C27.1031 9.9713 27.8571 12.4571 27.8571 15C27.8571 18.4099 26.5026 21.6802 24.0914 24.0914C21.6802 26.5025 18.4099 27.8571 15 27.8571Z" fill="#27282D"/>
<path d="M15 21.75V22.5" stroke="#27282D" stroke-width="2" stroke-miterlimit="10" stroke-linecap="round" stroke-linejoin="round"/>
<path d="M15 18V16.1695C15 15.1608 15.6578 14.2543 16.6613 13.8798C17.9228 13.4087 18.75 12.2684 18.75 11C18.75 9.0673 17.0707 7.5 15 7.5C12.9293 7.5 11.25 9.0673 11.25 11" stroke="#27282D" stroke-width="2" stroke-miterlimit="10" stroke-linecap="round" stroke-linejoin="round"/>
</svg>
